<svg width="15" height="12" viewBox="0 0 15 12" fill="none" xmlns="http://www.w3.org/2000/svg">
<path d="M12.5 0H2.5C1.125 0 0 1.2 0 2.66667V9.33333C0 10.8 1.125 12 2.5 12H12.5C13.875 12 15 10.8 15 9.33333V2.66667C15 1.2 13.875 0 12.5 0ZM13.5 3.86667L8.5625 7.4C8.25 7.6 7.875 7.73333 7.5 7.73333C7.125 7.73333 6.75 7.6 6.4375 7.4L1.5 3.86667C1.25 3.66667 1.1875 3.26667 1.375 2.93333C1.5625 2.66667 1.9375 2.6 2.25 2.8L7.1875 6.33333C7.375 6.46667 7.6875 6.46667 7.875 6.33333L12.8125 2.8C13.125 2.6 13.5 2.66667 13.6875 3C13.8125 3.26667 13.75 3.66667 13.5 3.86667Z" fill="#FDC748"/>
</svg>
