<svg width="25" height="25" viewBox="0 0 25 25" fill="none" xmlns="http://www.w3.org/2000/svg">
<circle cx="12.5" cy="12.5" r="12.5" fill="#FDC748"/>
<path d="M13.7244 12.5L17.4571 8.77601C17.6205 8.61255 17.7124 8.39086 17.7124 8.15969C17.7124 7.92853 17.6205 7.70683 17.4571 7.54337C17.2936 7.37992 17.0719 7.28809 16.8408 7.28809C16.6096 7.28809 16.3879 7.37992 16.2244 7.54337L12.5005 11.276L8.77652 7.54337C8.61306 7.37992 8.39136 7.28809 8.1602 7.28809C7.92903 7.28809 7.70734 7.37992 7.54388 7.54337C7.38042 7.70683 7.28859 7.92853 7.28859 8.15969C7.28859 8.39086 7.38042 8.61255 7.54388 8.77601L11.2765 12.5L7.54388 16.2239C7.46252 16.3046 7.39794 16.4006 7.35387 16.5064C7.3098 16.6122 7.28711 16.7257 7.28711 16.8402C7.28711 16.9548 7.3098 17.0683 7.35387 17.1741C7.39794 17.2799 7.46252 17.3759 7.54388 17.4566C7.62458 17.5379 7.72058 17.6025 7.82636 17.6466C7.93214 17.6906 8.0456 17.7133 8.1602 17.7133C8.27479 17.7133 8.38825 17.6906 8.49403 17.6466C8.59981 17.6025 8.69582 17.5379 8.77652 17.4566L12.5005 13.7239L16.2244 17.4566C16.3051 17.5379 16.4011 17.6025 16.5069 17.6466C16.6127 17.6906 16.7262 17.7133 16.8408 17.7133C16.9553 17.7133 17.0688 17.6906 17.1746 17.6466C17.2804 17.6025 17.3764 17.5379 17.4571 17.4566C17.5384 17.3759 17.603 17.2799 17.6471 17.1741C17.6912 17.0683 17.7138 16.9548 17.7138 16.8402C17.7138 16.7257 17.6912 16.6122 17.6471 16.5064C17.603 16.4006 17.5384 16.3046 17.4571 16.2239L13.7244 12.5Z" fill="#664898"/>
</svg>
