<svg width="48" height="48" viewBox="0 0 48 48" fill="none" xmlns="http://www.w3.org/2000/svg">
<path fill-rule="evenodd" clip-rule="evenodd" d="M41.9063 0.0605469C45.1254 0.0605469 47.7388 2.67406 47.7388 5.89307V41.9668C47.7388 45.1858 45.1253 47.7993 41.9063 47.7993H31.9792V29.812H38.189L39.3705 22.1084H31.9792V17.1092C31.9792 15.0017 33.0116 12.9473 36.3223 12.9473H39.6829V6.38883C39.6829 6.38883 36.633 5.86836 33.7172 5.86836C27.6298 5.86836 23.651 9.55777 23.651 16.237V22.1084H16.8843V29.812H23.651V47.7993H5.83252C2.61351 47.7993 0 45.1858 0 41.9668V5.89307C0 2.67406 2.61342 0.0605469 5.83252 0.0605469H41.9063V0.0605469Z" fill="#B497DB"/>
</svg>
