<svg width="48" height="49" viewBox="0 0 48 49" fill="none" xmlns="http://www.w3.org/2000/svg">
<g clip-path="url(#clip0_194_430)">
<path fill-rule="evenodd" clip-rule="evenodd" d="M42.1356 0.137939C45.3723 0.137939 48 2.7746 48 6.02213V42.4154C48 45.663 45.3722 48.2996 42.1356 48.2996H32.1542V30.1529H38.3979L39.5859 22.3811H32.1542V17.3376C32.1542 15.2114 33.1923 13.1389 36.5211 13.1389H39.9V6.52228C39.9 6.52228 36.8334 5.9972 33.9017 5.9972C27.7809 5.9972 23.7804 9.71929 23.7804 16.4577V22.3811H16.9767V30.1529H23.7804V48.2996H5.86444C2.62781 48.2996 0 45.663 0 42.4154V6.02213C0 2.7746 2.62772 0.137939 5.86444 0.137939H42.1356V0.137939Z" fill="#1777F2"/>
</g>
<defs>
<clipPath id="clip0_194_430">
<rect width="47.7388" height="47.8996" fill="white" transform="translate(0 0.199097)"/>
</clipPath>
</defs>
</svg>
