<svg width="48" height="48" viewBox="0 0 48 48" fill="none" xmlns="http://www.w3.org/2000/svg">
<path d="M24.197 31.3899C28.4042 31.3899 31.8149 28.0503 31.8149 23.9306C31.8149 19.8109 28.4042 16.4712 24.197 16.4712C19.9897 16.4712 16.5791 19.8109 16.5791 23.9306C16.5791 28.0503 19.9897 31.3899 24.197 31.3899Z" fill="#B497DB"/>
<path d="M34.6716 0.620117H13.7224C10.1867 0.620117 6.79587 1.99544 4.29576 4.44352C1.79566 6.8916 0.391113 10.2119 0.391113 13.674V34.1873C0.391113 37.6494 1.79566 40.9697 4.29576 43.4178C6.79587 45.8659 10.1867 47.2412 13.7224 47.2412H34.6716C38.2073 47.2412 41.5982 45.8659 44.0983 43.4178C46.5984 40.9697 48.0029 37.6494 48.0029 34.1873V13.674C48.0029 10.2119 46.5984 6.8916 44.0983 4.44352C41.5982 1.99544 38.2073 0.620117 34.6716 0.620117ZM24.197 35.1197C21.937 35.1197 19.7277 34.4635 17.8486 33.234C15.9695 32.0046 14.5049 30.2571 13.64 28.2125C12.7751 26.168 12.5488 23.9183 12.9897 21.7478C13.4307 19.5773 14.519 17.5836 16.117 16.0188C17.7151 14.454 19.7512 13.3883 21.9678 12.9566C24.1843 12.5249 26.4819 12.7464 28.5699 13.5933C30.6579 14.4402 32.4425 15.8743 33.6981 17.7144C34.9537 19.5544 35.6238 21.7177 35.6238 23.9307C35.6238 26.8982 34.42 29.7442 32.277 31.8425C30.1341 33.9409 27.2276 35.1197 24.197 35.1197ZM36.5761 14.6064C36.0111 14.6064 35.4588 14.4424 34.989 14.135C34.5192 13.8277 34.153 13.3908 33.9368 12.8796C33.7206 12.3685 33.664 11.8061 33.7743 11.2635C33.8845 10.7208 34.1566 10.2224 34.5561 9.83122C34.9556 9.44001 35.4646 9.1736 36.0188 9.06566C36.5729 8.95773 37.1473 9.01313 37.6693 9.22484C38.1913 9.43656 38.6375 9.7951 38.9514 10.2551C39.2653 10.7151 39.4328 11.2559 39.4328 11.8092C39.4328 12.5511 39.1318 13.2626 38.5961 13.7871C38.0603 14.3117 37.3337 14.6064 36.5761 14.6064Z" fill="#B497DB"/>
</svg>
