<svg width="48" height="48" viewBox="0 0 48 48" fill="none" xmlns="http://www.w3.org/2000/svg">
<path d="M23.9423 31.3294C28.1497 31.3294 31.5604 27.9897 31.5604 23.87C31.5604 19.7503 28.1497 16.4106 23.9423 16.4106C19.735 16.4106 16.3242 19.7503 16.3242 23.87C16.3242 27.9897 19.735 31.3294 23.9423 31.3294Z" fill="#664898"/>
<path d="M34.4171 0.55957H13.4674C9.93162 0.55957 6.54066 1.93489 4.04049 4.38297C1.54032 6.83105 0.135742 10.1514 0.135742 13.6135V34.1268C0.135742 37.5889 1.54032 40.9092 4.04049 43.3573C6.54066 45.8054 9.93162 47.1807 13.4674 47.1807H34.4171C37.9529 47.1807 41.3439 45.8054 43.844 43.3573C46.3442 40.9092 47.7488 37.5889 47.7488 34.1268V13.6135C47.7488 10.1514 46.3442 6.83105 43.844 4.38297C41.3439 1.93489 37.9529 0.55957 34.4171 0.55957V0.55957ZM23.9423 35.0592C21.6822 35.0592 19.4729 34.403 17.5937 33.1735C15.7145 31.944 14.2499 30.1965 13.385 28.152C12.5201 26.1075 12.2938 23.8577 12.7347 21.6872C13.1756 19.5168 14.2639 17.5231 15.8621 15.9583C17.4602 14.3934 19.4963 13.3278 21.7129 12.8961C23.9296 12.4643 26.2272 12.6859 28.3152 13.5328C30.4033 14.3796 32.1879 15.8138 33.4436 17.6538C34.6992 19.4938 35.3694 21.6571 35.3694 23.8701C35.3694 26.8376 34.1655 29.6836 32.0225 31.782C29.8795 33.8803 26.9729 35.0592 23.9423 35.0592ZM36.3217 14.5459C35.7566 14.5459 35.2043 14.3818 34.7345 14.0745C34.2647 13.7671 33.8986 13.3302 33.6823 12.8191C33.4661 12.308 33.4095 11.7455 33.5198 11.2029C33.63 10.6603 33.9021 10.1619 34.3016 9.77067C34.7011 9.37946 35.2102 9.11305 35.7643 9.00512C36.3185 8.89718 36.8929 8.95258 37.4149 9.1643C37.9369 9.37602 38.3831 9.73455 38.697 10.1946C39.0109 10.6546 39.1784 11.1954 39.1784 11.7486C39.1784 12.4905 38.8775 13.202 38.3417 13.7266C37.806 14.2512 37.0793 14.5459 36.3217 14.5459Z" fill="#664898"/>
</svg>
