<svg width="49" height="49" viewBox="0 0 49 49" fill="none" xmlns="http://www.w3.org/2000/svg">
<g clip-path="url(#clip0_194_432)">
<path fill-rule="evenodd" clip-rule="evenodd" d="M39.8642 10.9031C39.8642 12.4334 38.6015 13.6737 37.0442 13.6737C35.487 13.6737 34.2242 12.4334 34.2242 10.9031C34.2242 9.37277 35.487 8.13248 37.0442 8.13248C38.6018 8.13248 39.8642 9.37277 39.8642 10.9031ZM24.5 30.9237C20.1738 30.9237 16.6668 27.4781 16.6668 23.2277C16.6668 18.9772 20.1738 15.5316 24.5 15.5316C28.8262 15.5316 32.3332 18.9772 32.3332 23.2277C32.3332 27.4781 28.8262 30.9237 24.5 30.9237ZM24.5 11.3714C17.8352 11.3714 12.4324 16.6796 12.4324 23.2277C12.4324 29.7758 17.8352 35.084 24.5 35.084C31.1648 35.084 36.5676 29.7758 36.5676 23.2277C36.5676 16.6796 31.1648 11.3714 24.5 11.3714ZM24.5 4.29942C30.7749 4.29942 31.5181 4.32287 33.9958 4.43399C36.2871 4.5368 37.5315 4.91271 38.3595 5.2291C39.4563 5.64794 40.2391 6.14831 41.0616 6.95641C41.8841 7.76414 42.3934 8.53328 42.8197 9.61123C43.1414 10.4247 43.5244 11.6473 43.629 13.8985C43.7421 16.3332 43.766 17.0634 43.766 23.2284C43.766 29.3934 43.7421 30.1236 43.629 32.558C43.5244 34.8091 43.1417 36.0317 42.8197 36.8452C42.3934 37.9228 41.8841 38.6919 41.0616 39.5C40.2395 40.3081 39.4566 40.8085 38.3595 41.2274C37.5315 41.5434 36.2871 41.9196 33.9958 42.0225C31.5181 42.1336 30.7749 42.157 24.5 42.157C18.2248 42.157 17.4816 42.1336 15.0038 42.0225C12.7125 41.9196 11.4681 41.5437 10.6401 41.2274C9.54335 40.8085 8.76051 40.3081 7.93801 39.5C7.11588 38.6923 6.60622 37.9232 6.17991 36.8452C5.85826 36.0317 5.47528 34.8091 5.37063 32.558C5.25754 30.1232 5.23367 29.393 5.23367 23.2284C5.23367 17.0634 5.25754 16.3332 5.37063 13.8985C5.47528 11.6473 5.85789 10.4247 6.17991 9.61123C6.60622 8.53364 7.11551 7.76451 7.93801 6.95641C8.76014 6.14831 9.54298 5.64794 10.6401 5.2291C11.4681 4.91307 12.7125 4.5368 15.0038 4.43399C17.4819 4.32287 18.2251 4.29942 24.5 4.29942ZM24.5 0.13916C18.1179 0.13916 17.3174 0.165856 14.811 0.278052C12.3097 0.390248 10.6012 0.780588 9.10677 1.35131C7.56127 1.94115 6.25078 2.73085 4.94433 4.01442C3.63787 5.298 2.8341 6.58555 2.23375 8.10398C1.65286 9.57263 1.25556 11.2509 1.14137 13.7084C1.02717 16.1709 1 16.9573 1 23.2277C1 29.498 1.02717 30.2845 1.14137 32.747C1.25556 35.2045 1.65286 36.8827 2.23375 38.3514C2.8341 39.8698 3.63787 41.1574 4.94433 42.4409C6.25078 43.7245 7.56127 44.5139 9.10677 45.1041C10.6016 45.6748 12.3097 46.0651 14.811 46.1773C17.3174 46.2895 18.1179 46.3162 24.5 46.3162C30.8821 46.3162 31.6826 46.2895 34.189 46.1773C36.6903 46.0651 38.3984 45.6748 39.8932 45.1041C41.4387 44.5139 42.7492 43.7245 44.0557 42.4409C45.3621 41.1574 46.1655 39.8698 46.7663 38.3514C47.3471 36.8827 47.7444 35.2045 47.8586 32.747C47.9728 30.2845 48 29.498 48 23.2277C48 16.9573 47.9728 16.1709 47.8586 13.7084C47.7444 11.2509 47.3471 9.57263 46.7663 8.10398C46.1655 6.58555 45.3621 5.298 44.0557 4.01442C42.7492 2.73085 41.4387 1.94151 39.8932 1.35131C38.3984 0.780588 36.6903 0.390248 34.189 0.278052C31.6826 0.165856 30.8821 0.13916 24.5 0.13916Z" fill="url(#paint0_radial_194_432)"/>
</g>
<defs>
<radialGradient id="paint0_radial_194_432" cx="0" cy="0" r="1" gradientUnits="userSpaceOnUse" gradientTransform="translate(8.01736 46.4765) scale(60.0542 59.0027)">
<stop stop-color="#FFB140"/>
<stop offset="0.2559" stop-color="#FF5445"/>
<stop offset="0.599" stop-color="#FC2B82"/>
<stop offset="1" stop-color="#8E40B7"/>
</radialGradient>
<clipPath id="clip0_194_432">
<rect width="47.7388" height="47.9008" fill="white" transform="translate(0.73877 0.199097)"/>
</clipPath>
</defs>
</svg>
