<svg width="25" height="25" viewBox="0 0 25 25" fill="none" xmlns="http://www.w3.org/2000/svg">
<g clip-path="url(#clip0_1222_141)">
<mask id="path-1-inside-1_1222_141" fill="white">
<path d="M6.90104 11.2448C8.40104 14.1927 10.8125 16.6042 13.7656 18.1042L16.0573 15.8073C16.3437 15.5208 16.7552 15.4375 17.1146 15.5521C18.2812 15.9375 19.5365 16.1458 20.8333 16.1458C21.4115 16.1458 21.875 16.6094 21.875 17.1875V20.8333C21.875 21.4115 21.4115 21.875 20.8333 21.875C11.0521 21.875 3.125 13.9479 3.125 4.16667C3.125 3.58854 3.59375 3.125 4.16667 3.125H7.8125C8.39062 3.125 8.85417 3.58854 8.85417 4.16667C8.85417 5.46354 9.0625 6.71875 9.44792 7.88542C9.5625 8.24479 9.47917 8.65625 9.19271 8.94271L6.90104 11.2448Z"/>
</mask>
<path d="M6.90104 11.2448C8.40104 14.1927 10.8125 16.6042 13.7656 18.1042L16.0573 15.8073C16.3437 15.5208 16.7552 15.4375 17.1146 15.5521C18.2812 15.9375 19.5365 16.1458 20.8333 16.1458C21.4115 16.1458 21.875 16.6094 21.875 17.1875V20.8333C21.875 21.4115 21.4115 21.875 20.8333 21.875C11.0521 21.875 3.125 13.9479 3.125 4.16667C3.125 3.58854 3.59375 3.125 4.16667 3.125H7.8125C8.39062 3.125 8.85417 3.58854 8.85417 4.16667C8.85417 5.46354 9.0625 6.71875 9.44792 7.88542C9.5625 8.24479 9.47917 8.65625 9.19271 8.94271L6.90104 11.2448Z" fill="#664898"/>
<path d="M13.7656 18.1042L-159.229 358.687L88.186 484.358L284.187 287.912L13.7656 18.1042ZM16.0573 15.8073L-254.058 -254.307L-254.211 -254.154L-254.364 -254.001L16.0573 15.8073ZM17.1146 15.5521L136.942 -347.167L135.052 -347.792L133.156 -348.396L17.1146 15.5521ZM9.44792 7.88542L373.396 -108.156L372.792 -110.052L372.167 -111.942L9.44792 7.88542ZM9.19271 8.94271L-260.922 -261.172L-261.228 -260.866L-261.534 -260.559L9.19271 8.94271ZM-333.559 184.482C-295.386 259.503 -234.353 320.529 -159.229 358.687L186.76 -322.479C255.978 -287.321 312.188 -231.117 347.361 -161.993L-333.559 184.482ZM284.187 287.912L286.478 285.615L-254.364 -254.001L-256.656 -251.704L284.187 287.912ZM286.172 285.922C180.478 391.616 30.0623 420.627 -98.9269 379.5L133.156 -348.396C3.44809 -389.752 -147.791 -360.574 -254.058 -254.307L286.172 285.922ZM-102.712 378.272C-63.0555 391.373 -21.3561 398.146 20.8333 398.146V-365.854C60.429 -365.854 99.618 -359.498 136.942 -347.167L-102.712 378.272ZM20.8333 398.146C-189.561 398.146 -360.125 227.582 -360.125 17.1875H403.875C403.875 -194.363 232.384 -365.854 20.8333 -365.854V398.146ZM-360.125 17.1875V20.8333H403.875V17.1875H-360.125ZM-360.125 20.8333C-360.125 -189.561 -189.561 -360.125 20.8333 -360.125V403.875C232.384 403.875 403.875 232.384 403.875 20.8333H-360.125ZM20.8333 -360.125C222.025 -360.125 385.125 -197.025 385.125 4.16667H-378.875C-378.875 224.921 -199.921 403.875 20.8333 403.875V-360.125ZM385.125 4.16667C385.125 215.804 213.321 385.125 4.16667 385.125V-378.875C-206.134 -378.875 -378.875 -208.627 -378.875 4.16667H385.125ZM4.16667 385.125H7.8125V-378.875H4.16667V385.125ZM7.8125 385.125C-202.582 385.125 -373.146 214.561 -373.146 4.16667H390.854C390.854 -207.384 219.363 -378.875 7.8125 -378.875V385.125ZM-373.146 4.16667C-373.146 46.356 -366.373 88.0554 -353.272 127.712L372.167 -111.942C384.498 -74.6179 390.854 -35.429 390.854 4.16667H-373.146ZM-354.5 123.927C-395.627 -5.0624 -366.616 -155.478 -260.922 -261.172L279.308 279.057C385.574 172.791 414.752 21.552 373.396 -108.156L-354.5 123.927ZM-261.534 -260.559L-263.826 -258.257L277.628 280.746L279.919 278.444L-261.534 -260.559Z" fill="#664898" mask="url(#path-1-inside-1_1222_141)"/>
</g>
<defs>
<clipPath id="clip0_1222_141">
<rect width="25" height="25" fill="white"/>
</clipPath>
</defs>
</svg>
