<svg width="15" height="15" viewBox="0 0 15 15" fill="none" xmlns="http://www.w3.org/2000/svg">
<mask id="path-1-inside-1_1013_665" fill="white">
<path d="M3.02083 6.49583C4.22083 8.85417 6.15 10.7833 8.5125 11.9833L10.3458 10.1458C10.575 9.91667 10.9042 9.85 11.1917 9.94167C12.125 10.25 13.1292 10.4167 14.1667 10.4167C14.6292 10.4167 15 10.7875 15 11.25V14.1667C15 14.6292 14.6292 15 14.1667 15C6.34167 15 0 8.65833 0 0.833333C0 0.370833 0.375 0 0.833333 0H3.75C4.2125 0 4.58333 0.370833 4.58333 0.833333C4.58333 1.87083 4.75 2.875 5.05833 3.80833C5.15 4.09583 5.08333 4.425 4.85417 4.65417L3.02083 6.49583Z"/>
</mask>
<path d="M3.02083 6.49583C4.22083 8.85417 6.15 10.7833 8.5125 11.9833L10.3458 10.1458C10.575 9.91667 10.9042 9.85 11.1917 9.94167C12.125 10.25 13.1292 10.4167 14.1667 10.4167C14.6292 10.4167 15 10.7875 15 11.25V14.1667C15 14.6292 14.6292 15 14.1667 15C6.34167 15 0 8.65833 0 0.833333C0 0.370833 0.375 0 0.833333 0H3.75C4.2125 0 4.58333 0.370833 4.58333 0.833333C4.58333 1.87083 4.75 2.875 5.05833 3.80833C5.15 4.09583 5.08333 4.425 4.85417 4.65417L3.02083 6.49583Z" fill="#FDC748"/>
<path d="M8.5125 11.9833L-164.482 352.566L82.9329 478.238L278.934 281.791L8.5125 11.9833ZM10.3458 10.1458L-259.769 -259.969L-259.922 -259.816L-260.075 -259.662L10.3458 10.1458ZM11.1917 9.94167L131.019 -352.778L129.129 -353.402L127.233 -354.007L11.1917 9.94167ZM5.05833 3.80833L369.007 -112.233L368.402 -114.129L367.778 -116.019L5.05833 3.80833ZM4.85417 4.65417L-265.261 -265.461L-265.567 -265.154L-265.872 -264.847L4.85417 4.65417ZM-337.439 179.733C-299.566 254.164 -239.016 314.708 -164.482 352.566L181.507 -328.6C251.316 -293.141 308.008 -236.456 343.481 -166.742L-337.439 179.733ZM278.934 281.791L280.767 279.954L-260.075 -259.662L-261.909 -257.825L278.934 281.791ZM280.461 280.261C174.71 386.012 24.2113 415.04 -104.85 373.89L127.233 -354.007C-2.40295 -395.34 -153.56 -366.178 -259.769 -259.969L280.461 280.261ZM-108.635 372.661C-69.2117 385.685 -27.7634 392.417 14.1667 392.417V-371.583C54.0217 -371.583 93.4617 -365.185 131.019 -352.778L-108.635 372.661ZM14.1667 392.417C-196.344 392.417 -367 221.76 -367 11.25H397C397 -200.185 225.602 -371.583 14.1667 -371.583V392.417ZM-367 11.25V14.1667H397V11.25H-367ZM-367 14.1667C-367 -196.344 -196.344 -367 14.1667 -367V397C225.602 397 397 225.602 397 14.1667H-367ZM14.1667 -367C217.314 -367 382 -202.314 382 0.833333H-382C-382 219.631 -204.631 397 14.1667 397V-367ZM382 0.833333C382 212.587 210.103 382 0.833333 382V-382C-209.353 -382 -382 -211.845 -382 0.833333H382ZM0.833333 382H3.75V-382H0.833333V382ZM3.75 382C-206.76 382 -377.417 211.344 -377.417 0.833333H386.583C386.583 -210.602 215.185 -382 3.75 -382V382ZM-377.417 0.833333C-377.417 42.7633 -370.685 84.2117 -357.661 123.635L367.778 -116.019C380.185 -78.4617 386.583 -39.0217 386.583 0.833333H-377.417ZM-358.89 119.85C-400.04 -9.21136 -371.012 -159.71 -265.261 -265.461L274.969 274.769C381.178 168.56 410.34 17.403 369.007 -112.233L-358.89 119.85ZM-265.872 -264.847L-267.706 -263.006L273.747 275.997L275.581 274.156L-265.872 -264.847Z" fill="#FDC748" mask="url(#path-1-inside-1_1013_665)"/>
</svg>
