<svg width="49" height="48" viewBox="0 0 49 48" fill="none" xmlns="http://www.w3.org/2000/svg">
<g clip-path="url(#clip0_1222_145)">
<g clip-path="url(#clip1_1222_145)">
<path d="M36.0629 0C36.345 0 36.9089 -5.58333e-09 37.3319 0.0479604C38.366 0.0479604 39.729 0.143881 40.34 0.287763C41.28 0.479604 42.1731 0.767367 42.8781 1.15105C43.7711 1.58269 44.5231 2.15822 45.2281 2.87763C45.8862 3.54907 46.4502 4.31644 46.8732 5.22769C47.2492 5.94709 47.5312 6.85834 47.7192 7.81755C47.8602 8.44103 47.9542 9.83189 48.0012 10.887V35.7786C48.0012 36.0663 48.0012 36.6419 47.9542 37.0735C47.9542 38.1286 47.8602 39.5195 47.7192 40.143C47.5312 41.1022 47.2492 42.0134 46.8732 42.7328C46.4502 43.6441 45.8862 44.4114 45.1811 45.1309C44.5231 45.8023 43.7711 46.3778 42.8781 46.8095C42.1731 47.1931 41.28 47.4809 40.34 47.6728C39.729 47.8166 38.366 47.9126 37.3319 47.9605H12.9383C12.6563 47.9605 12.0923 47.9605 11.6693 47.9126C10.6352 47.9126 9.27221 47.8166 8.6612 47.6728C7.72117 47.4809 6.82815 47.1931 6.12313 46.8095C5.23011 46.3778 4.47809 45.8023 3.77307 45.0829C3.11505 44.4114 2.55104 43.6441 2.12803 42.7328C1.75202 42.0134 1.47001 41.1022 1.28201 40.143C1.141 39.5195 1.047 38.1286 1 37.0735V12.1819C1 11.8942 1 11.3187 1.047 10.887C1.047 9.83189 1.141 8.44103 1.28201 7.81755C1.47001 6.85834 1.75202 5.94709 2.12803 5.22769C2.55104 4.31644 3.11505 3.54907 3.82007 2.82966C4.47809 2.15822 5.23011 1.58269 6.12313 1.15105C6.82815 0.767367 7.72117 0.479604 8.6612 0.287763C9.27221 0.143881 10.6352 0.0479604 11.6693 0H36.0629ZM36.8612 11.4808C33.6981 8.25041 29.4915 6.47054 25.0096 6.46866C15.7751 6.46866 8.25921 14.1349 8.25554 23.558C8.25434 26.5702 9.02573 29.5106 10.4919 32.1021L8.11499 40.9584L16.9966 38.5819C19.4437 39.9434 22.1988 40.6609 25.0029 40.6621H25.0098C34.2435 40.6621 41.76 32.9948 41.7637 23.5717C41.7655 19.0051 40.0245 14.7112 36.8612 11.4808ZM25.0097 37.7756H25.0041C22.5054 37.7745 20.0546 37.0899 17.9166 35.7956L17.4081 35.4877L12.1376 36.8981L13.5445 31.6562L13.2132 31.1189C11.8194 28.8572 11.0832 26.2432 11.0842 23.5592C11.0873 15.7271 17.3342 9.35509 25.0153 9.35509C28.7348 9.35659 32.231 10.8362 34.8602 13.5211C37.4893 16.206 38.9364 19.7751 38.935 23.5706C38.9318 31.4032 32.6851 37.7756 25.0097 37.7756ZM32.6481 27.1369C32.2295 26.9231 30.1713 25.89 29.7875 25.7475C29.4038 25.6051 29.1248 25.5338 28.8457 25.9613C28.5666 26.3888 27.7643 27.3507 27.5202 27.6357C27.276 27.9206 27.0318 27.9563 26.6132 27.7425C26.1945 27.5288 24.8457 27.0779 23.2467 25.623C22.0023 24.4907 21.1621 23.0922 20.9179 22.6647C20.6737 22.2372 20.8919 22.0061 21.1015 21.7931C21.2897 21.602 21.5201 21.2944 21.7294 21.0451C21.9387 20.7957 22.0084 20.6175 22.148 20.3326C22.2875 20.0476 22.2177 19.7982 22.1131 19.5844C22.0084 19.3707 21.1712 17.2688 20.8224 16.4138C20.4826 15.5811 20.1375 15.6938 19.8805 15.6807C19.6366 15.6684 19.3573 15.6657 19.0782 15.6657C18.799 15.6657 18.3457 15.7726 17.9618 16.2C17.5781 16.6276 16.4967 17.6608 16.4967 19.7626C16.4967 21.8644 17.9967 23.8951 18.206 24.1801C18.4154 24.4652 21.158 28.7784 25.3574 30.6282C26.3561 31.0681 27.1359 31.3308 27.7439 31.5277C28.7467 31.8527 29.6594 31.8068 30.3806 31.6969C31.1849 31.5743 32.8574 30.6638 33.2063 29.6663C33.555 28.6688 33.555 27.8138 33.4504 27.6357C33.3458 27.4575 33.0668 27.3506 32.6481 27.1369Z" fill="#664898"/>
</g>
</g>
<defs>
<clipPath id="clip0_1222_145">
<rect x="0.51123" width="47.74" height="47.74" fill="white"/>
</clipPath>
<clipPath id="clip1_1222_145">
<rect width="47.0012" height="47.9604" fill="white" transform="translate(1)"/>
</clipPath>
</defs>
</svg>
