<svg width="50" height="48" viewBox="0 0 50 48" fill="none" xmlns="http://www.w3.org/2000/svg">
<g clip-path="url(#clip0_971_541)">
<g clip-path="url(#clip1_971_541)">
<path d="M36.7882 0C37.0761 0 37.6515 -5.58333e-09 38.0832 0.0479604C39.1383 0.0479604 40.5292 0.143881 41.1526 0.287763C42.1119 0.479604 43.0231 0.767367 43.7425 1.15105C44.6538 1.58269 45.4211 2.15822 46.1405 2.87763C46.812 3.54907 47.3875 4.31644 47.8191 5.22769C48.2028 5.94709 48.4906 6.85834 48.6824 7.81755C48.8263 8.44103 48.9222 9.83189 48.9702 10.887V35.7786C48.9702 36.0663 48.9702 36.6419 48.9222 37.0735C48.9222 38.1286 48.8263 39.5195 48.6824 40.143C48.4906 41.1022 48.2028 42.0134 47.8191 42.7328C47.3875 43.6441 46.812 44.4114 46.0926 45.1309C45.4211 45.8023 44.6538 46.3778 43.7425 46.8095C43.0231 47.1931 42.1119 47.4809 41.1526 47.6728C40.5292 47.8166 39.1383 47.9126 38.0832 47.9605H13.1917C12.904 47.9605 12.3284 47.9605 11.8968 47.9126C10.8417 47.9126 9.4508 47.8166 8.82732 47.6728C7.86811 47.4809 6.95686 47.1931 6.23745 46.8095C5.3262 46.3778 4.55884 45.8023 3.83943 45.0829C3.16798 44.4114 2.59246 43.6441 2.16082 42.7328C1.77713 42.0134 1.48937 41.1022 1.29753 40.143C1.15365 39.5195 1.05773 38.1286 1.00977 37.0735V12.1819C1.00977 11.8942 1.00977 11.3187 1.05773 10.887C1.05773 9.83189 1.15365 8.44103 1.29753 7.81755C1.48937 6.85834 1.77713 5.94709 2.16082 5.22769C2.59246 4.31644 3.16798 3.54907 3.88739 2.82966C4.55884 2.15822 5.3262 1.58269 6.23745 1.15105C6.95686 0.767367 7.86811 0.479604 8.82732 0.287763C9.4508 0.143881 10.8416 0.0479604 11.8968 0H36.7882ZM37.6028 11.4808C34.3751 8.25041 30.0827 6.47054 25.5094 6.46866C16.0864 6.46866 8.41712 14.1349 8.41338 23.558C8.41216 26.5702 9.19929 29.5106 10.6953 32.1021L8.26996 40.9584L17.3328 38.5819C19.8298 39.9434 22.6412 40.6609 25.5026 40.6621H25.5096C34.9317 40.6621 42.6016 32.9948 42.6054 23.5717C42.6072 19.0051 40.8307 14.7112 37.6028 11.4808ZM25.5095 37.7756H25.5038C22.954 37.7745 20.4532 37.0899 18.2716 35.7956L17.7527 35.4877L12.3747 36.8981L13.8102 31.6562L13.4723 31.1189C12.0499 28.8572 11.2988 26.2432 11.2998 23.5592C11.3029 15.7271 17.6773 9.35509 25.5152 9.35509C29.3105 9.35659 32.8782 10.8362 35.5609 13.5211C38.2437 16.206 39.7204 19.7751 39.719 23.5706C39.7157 31.4032 33.3415 37.7756 25.5095 37.7756ZM33.3037 27.1369C32.8766 26.9231 30.7764 25.89 30.3848 25.7475C29.9932 25.6051 29.7086 25.5338 29.4238 25.9613C29.1389 26.3888 28.3203 27.3507 28.0712 27.6357C27.822 27.9206 27.5728 27.9563 27.1457 27.7425C26.7184 27.5288 25.3421 27.0779 23.7105 25.623C22.4407 24.4907 21.5833 23.0922 21.3341 22.6647C21.085 22.2372 21.3076 22.0061 21.5215 21.7931C21.7136 21.602 21.9486 21.2944 22.1622 21.0451C22.3758 20.7957 22.447 20.6175 22.5893 20.3326C22.7317 20.0476 22.6605 19.7982 22.5537 19.5844C22.447 19.3707 21.5927 17.2688 21.2367 16.4138C20.89 15.5811 20.5378 15.6938 20.2756 15.6807C20.0267 15.6684 19.7417 15.6657 19.4569 15.6657C19.1721 15.6657 18.7094 15.7726 18.3178 16.2C17.9262 16.6276 16.8227 17.6608 16.8227 19.7626C16.8227 21.8644 18.3534 23.8951 18.5669 24.1801C18.7806 24.4652 21.5792 28.7784 25.8642 30.6282C26.8834 31.0681 27.679 31.3308 28.2994 31.5277C29.3227 31.8527 30.254 31.8068 30.99 31.6969C31.8107 31.5743 33.5173 30.6638 33.8733 29.6663C34.2292 28.6688 34.2292 27.8138 34.1224 27.6357C34.0157 27.4575 33.731 27.3506 33.3037 27.1369Z" fill="#B497DB"/>
</g>
</g>
<defs>
<clipPath id="clip0_971_541">
<rect x="0.51123" width="48.7143" height="47.74" fill="white"/>
</clipPath>
<clipPath id="clip1_971_541">
<rect width="47.9604" height="47.9604" fill="white" transform="translate(1.00977)"/>
</clipPath>
</defs>
</svg>
