<svg width="47" height="49" viewBox="0 0 47 49" fill="none" xmlns="http://www.w3.org/2000/svg">
<path d="M10.669 0.134644C9.635 0.182766 8.272 0.27901 7.661 0.423375C6.721 0.615863 5.828 0.904595 5.123 1.28957C4.23 1.72267 3.478 2.30013 2.82 2.97384C2.115 3.69567 1.551 4.46562 1.128 5.37994C0.752 6.10177 0.47 7.01609 0.282 7.97853C0.141 8.60411 0.047 9.99965 0.047 11.0583C0 11.4914 0 12.0689 0 12.3576V36.0337V37.333C0.047 38.3917 0.141 39.7873 0.282 40.4128C0.47 41.3753 0.752 42.2896 1.128 43.0114C1.551 43.9257 2.115 44.6957 2.773 45.3694C3.478 46.0912 4.23 46.6687 5.123 47.1018C5.828 47.4868 6.721 47.7755 7.661 47.968C8.272 48.1124 9.635 48.2086 10.669 48.2086C11.092 48.2567 11.656 48.2567 11.938 48.2567H35.062H36.331C37.365 48.2086 38.728 48.1124 39.339 47.968C40.279 47.7755 41.172 47.4868 41.877 47.1018C42.77 46.6687 43.522 46.0912 44.18 45.4175C44.885 44.6957 45.449 43.9257 45.872 43.0114C46.248 42.2896 46.53 41.3753 46.718 40.4128C46.859 39.7873 46.953 38.3917 46.953 37.333C47 36.8999 47 36.3225 47 36.0337V11.0583C46.953 9.99965 46.859 8.60411 46.718 7.97853C46.53 7.01609 46.248 6.10177 45.872 5.37994C45.449 4.46562 44.885 3.69567 44.227 3.02196C43.522 2.30013 42.77 1.72267 41.877 1.28957C41.172 0.904595 40.279 0.615863 39.339 0.423375C38.728 0.27901 37.365 0.182766 36.331 0.182766C35.908 0.134644 35.344 0.134644 35.062 0.134644H10.669Z" fill="url(#paint0_linear_194_436)"/>
<path fill-rule="evenodd" clip-rule="evenodd" d="M31.6472 27.3628C31.2286 27.1484 29.1705 26.1118 28.7867 25.9688C28.403 25.8259 28.124 25.7543 27.845 26.1833C27.5658 26.6123 26.7636 27.5773 26.5194 27.8633C26.2752 28.1492 26.0311 28.1851 25.6125 27.9705C25.1938 27.7561 23.845 27.3036 22.2461 25.8438C21.0017 24.7078 20.1615 23.3045 19.9173 22.8756C19.6731 22.4466 19.8913 22.2147 20.1009 22.0011C20.2892 21.8093 20.5195 21.5007 20.7288 21.2505C20.9381 21.0003 21.0078 20.8215 21.1474 20.5356C21.2869 20.2497 21.2171 19.9994 21.1125 19.785C21.0078 19.5705 20.1706 17.4616 19.8218 16.6036C19.4821 15.7682 19.1369 15.8812 18.88 15.8681C18.6361 15.8557 18.3567 15.853 18.0777 15.853C17.7985 15.853 17.3451 15.9603 16.9613 16.3892C16.5776 16.8181 15.4963 17.8548 15.4963 19.9637C15.4963 22.0726 16.9962 24.1101 17.2055 24.3961C17.4149 24.6821 20.1574 29.0099 24.3567 30.8659C25.3554 31.3073 26.1351 31.5709 26.7431 31.7684C27.7459 32.0945 28.6586 32.0485 29.3798 31.9382C30.184 31.8152 31.8565 30.9016 32.2054 29.9008C32.5541 28.8999 32.5541 28.042 32.4495 27.8633C32.3449 27.6846 32.0659 27.5773 31.6472 27.3628ZM24.009 38.0374H24.0034C21.5047 38.0363 19.054 37.3494 16.9161 36.0507L16.4076 35.7418L11.1373 37.1569L12.5441 31.8974L12.2129 31.3583C10.819 29.0889 10.0829 26.4661 10.0839 23.7731C10.0869 15.9146 16.3337 9.52115 24.0146 9.52115C27.734 9.52266 31.2302 11.0072 33.8592 13.7012C36.4883 16.3952 37.9354 19.9762 37.934 23.7845C37.9308 31.6435 31.6842 38.0374 24.009 38.0374ZM35.8602 11.654C32.6972 8.41275 28.4907 6.62688 24.0089 6.625C14.7746 6.625 7.25896 14.3171 7.25529 23.7719C7.25409 26.7942 8.02546 29.7445 9.49155 32.3448L7.11475 41.2309L15.9961 38.8464C18.4431 40.2125 21.1982 40.9324 24.0022 40.9336H24.0091C33.2426 40.9336 40.7589 33.2405 40.7626 23.7857C40.7644 19.2036 39.0234 14.8953 35.8602 11.654Z" fill="white"/>
<defs>
<linearGradient id="paint0_linear_194_436" x1="23.5" y1="48.2567" x2="23.5" y2="0.134735" gradientUnits="userSpaceOnUse">
<stop stop-color="#25CF43"/>
<stop offset="1" stop-color="#61FD7D"/>
</linearGradient>
</defs>
</svg>
